<?xml version="1.0" encoding="utf-8"?>
<!-- Generator: Adobe Illustrator 16.0.0, SVG Export Plug-In . SVG Version: 6.00 Build 0)  -->
<!DOCTYPE svg PUBLIC "-//W3C//DTD SVG 1.1//EN" "http://www.w3.org/Graphics/SVG/1.1/DTD/svg11.dtd">
<svg version="1.1" id="Layer_1" xmlns="http://www.w3.org/2000/svg" xmlns:xlink="http://www.w3.org/1999/xlink" x="0px" y="0px"
	 width="245.115px" height="245.115px" viewBox="0 0 245.115 245.115" enable-background="new 0 0 245.115 308.395"
	 xml:space="preserve">
<g>
	<ellipse fill="#7D2982" cx="221.067" cy="227.694" rx="11.216" ry="14.862"/>
	<polygon fill="#7D2982" points="189.549,232.325 189.549,205.063 168.917,232.325 	"/>
	<path fill="#7D2982" d="M0,251.729h245.115V0L0,251.729z M201.336,233.677h-6.263v10.068h-5.524v-10.068h-24.192l29.717-39.419
		v38.067h6.263V233.677z M221.005,244.113c-9.16-0.536-16.6-5.354-16.6-23.576c0-28.898,19.362-31.518,28.206-21.859
		c2.267,2.478,3.191,4.831,3.548,7.669c0.038,0.303-1.179,0.332-1.269,0.037c-3.713-12.126-14.833-12.861-20.699-6.559
		c-4.031,4.328-4.317,14.431-4.339,16.21c-0.001,0.174,0.152,0.22,0.229,0.108c0.962-1.378,4.66-5.211,12.786-4.856
		c7.531,0.327,14.736,6.352,14.736,17.354C237.605,237.425,229.375,244.604,221.005,244.113z"/>
</g>
<g>
	<path fill="#FFFFFF" d="M195.084,194.258l-29.717,39.419h24.192v10.068h5.524v-10.068h6.263v-1.352h-6.263V194.258z
		 M189.549,232.325h-20.633l20.633-27.262V232.325z"/>
	<path fill="#FFFFFF" d="M222.879,211.287c-8.126-0.354-11.824,3.479-12.786,4.856c-0.077,0.111-0.23,0.065-0.229-0.108
		c0.021-1.779,0.308-11.882,4.339-16.21c5.866-6.303,16.986-5.567,20.699,6.559c0.09,0.295,1.307,0.266,1.269-0.037
		c-0.356-2.838-1.281-5.191-3.548-7.669c-8.844-9.658-28.206-7.039-28.206,21.859c0,18.223,7.439,23.04,16.6,23.576
		c8.37,0.491,16.6-6.688,16.6-15.473C237.616,217.639,230.411,211.614,222.879,211.287z M221.067,242.557
		c-6.193,0-11.216-6.652-11.216-14.863c0-8.206,5.022-14.861,11.216-14.861c6.194,0,11.215,6.655,11.215,14.861
		C232.282,235.904,227.261,242.557,221.067,242.557z"/>
</g>
</svg>
